<?xml version="1.0" encoding="UTF-8"?>
<svg
  xmlns="http://www.w3.org/2000/svg"
  id="waves"
  viewBox="0 0 1440 320"
  preserveAspectRatio="none"
>
  <defs>
    <linearGradient id="waveGradient" x1="0" y1="0" x2="0" y2="1">
      <stop offset="0%" stop-color="#6a0dad" />
      <stop offset="100%" stop-color="#00bfff" />
    </linearGradient>
  </defs>
  <path
    fill="url(#waveGradient)"
    fill-opacity="1"
    d="M0,64L48,96C96,128,192,192,288,224C384,256,480,256,576,213.3C672,171,768,85,864,53.3C960,21,1056,43,1152,69.3C1248,96,1344,128,1392,144L1440,160L1440,320L1392,320C1344,320,1248,320,1152,320C1056,320,960,320,864,320C768,320,672,320,576,320C480,320,384,320,288,320C192,320,96,320,48,320L0,320Z"
  ></path>
</svg>
